<svg width="960" height="720" viewBox="0 0 960 720" fill="none" xmlns="http://www.w3.org/2000/svg" role="img" aria-labelledby="title desc">
  <title id="title">Farmer using mobile plant disease diagnosis</title>
  <desc id="desc">A farmer-friendly agri-tech scene with a phone, crop leaves, and AI diagnosis cards.</desc>
  <rect width="960" height="720" rx="48" fill="#F8FAFC"/>
  <path d="M0 523c158-63 272-55 414 10 168 77 310 76 546-31v218H0V523Z" fill="#DCFCE7"/>
  <path d="M0 579c168-45 285-38 423 20 166 69 337 49 537-44v165H0V579Z" fill="#BBF7D0"/>
  <rect x="360" y="86" width="240" height="506" rx="42" fill="#0F172A"/>
  <rect x="382" y="124" width="196" height="430" rx="30" fill="white"/>
  <rect x="430" y="102" width="100" height="14" rx="7" fill="#334155"/>
  <rect x="406" y="154" width="148" height="34" rx="17" fill="#DCFCE7"/>
  <rect x="416" y="164" width="82" height="10" rx="5" fill="#16A34A"/>
  <rect x="406" y="212" width="148" height="140" rx="26" fill="#F0FDF4"/>
  <path d="M482 337c-62-38-66-103-8-123 49-17 91 22 79 72-20 45-43 62-71 51Z" fill="#22C55E"/>
  <path d="M482 330c3-42 16-74 58-105" stroke="#166534" stroke-width="5" stroke-linecap="round"/>
  <circle cx="501" cy="271" r="10" fill="#D97706"/>
  <circle cx="531" cy="300" r="8" fill="#92400E" opacity=".8"/>
  <rect x="406" y="376" width="148" height="52" rx="18" fill="#F8FAFC" stroke="#E2E8F0"/>
  <rect x="424" y="394" width="78" height="9" rx="4.5" fill="#64748B" opacity=".55"/>
  <rect x="424" y="412" width="100" height="8" rx="4" fill="#16A34A"/>
  <rect x="406" y="446" width="148" height="58" rx="18" fill="#FFFBEB" stroke="#FDE68A"/>
  <rect x="424" y="466" width="92" height="9" rx="4.5" fill="#92400E" opacity=".45"/>
  <rect x="424" y="484" width="58" height="8" rx="4" fill="#D97706"/>
  <path d="M226 584c26-100 65-173 130-218-11 96-47 171-130 218Z" fill="#16A34A"/>
  <path d="M254 583c33-83 65-143 101-201" stroke="#14532D" stroke-width="6" stroke-linecap="round"/>
  <path d="M716 588c-39-100-32-181 29-247 39 93 47 178-29 247Z" fill="#22C55E"/>
  <path d="M724 584c1-83 8-151 23-221" stroke="#14532D" stroke-width="6" stroke-linecap="round"/>
  <rect x="626" y="178" width="190" height="92" rx="24" fill="white" stroke="#BBF7D0" stroke-width="2"/>
  <rect x="650" y="205" width="104" height="12" rx="6" fill="#166534" opacity=".75"/>
  <rect x="650" y="231" width="132" height="10" rx="5" fill="#64748B" opacity=".45"/>
  <rect x="144" y="238" width="184" height="92" rx="24" fill="white" stroke="#BAE6FD" stroke-width="2"/>
  <rect x="168" y="266" width="112" height="12" rx="6" fill="#0284C7" opacity=".75"/>
  <rect x="168" y="292" width="126" height="10" rx="5" fill="#64748B" opacity=".45"/>
</svg>
