<svg width="960" height="720" viewBox="0 0 960 720" fill="none" xmlns="http://www.w3.org/2000/svg" role="img" aria-labelledby="title desc">
  <title id="title">Plant leaf disease analysis preview</title>
  <desc id="desc">A premium agri-tech illustration showing a leaf image scanned by AI with plant disease indicators.</desc>
  <rect width="960" height="720" rx="48" fill="#F0FDF4"/>
  <circle cx="792" cy="108" r="126" fill="#DCFCE7"/>
  <circle cx="112" cy="604" r="170" fill="#ECFCCB"/>
  <rect x="104" y="92" width="752" height="536" rx="40" fill="white" stroke="#BBF7D0" stroke-width="3"/>
  <rect x="146" y="138" width="668" height="82" rx="24" fill="#F8FAFC"/>
  <circle cx="188" cy="179" r="22" fill="#16A34A"/>
  <path d="M182 181c19-36 48-29 57-13-22 3-39 15-48 29-6-1-9-6-9-16Z" fill="#DCFCE7"/>
  <rect x="238" y="160" width="210" height="14" rx="7" fill="#0F172A" opacity=".82"/>
  <rect x="238" y="184" width="132" height="10" rx="5" fill="#64748B" opacity=".55"/>
  <rect x="632" y="160" width="136" height="32" rx="16" fill="#DCFCE7"/>
  <rect x="166" y="260" width="390" height="288" rx="36" fill="url(#leafBg)"/>
  <path d="M359 520C244 456 221 347 328 287c86-48 176 9 187 94-44 112-100 158-156 139Z" fill="#22C55E"/>
  <path d="M358 513c6-85 29-154 111-218" stroke="#166534" stroke-width="7" stroke-linecap="round"/>
  <path d="M359 430c-42-28-67-47-98-77M391 382c50-2 80-15 113-42M344 471c-49-5-78-18-111-43" stroke="#166534" stroke-width="5" stroke-linecap="round" opacity=".65"/>
  <circle cx="315" cy="360" r="18" fill="#D97706" opacity=".9"/>
  <circle cx="430" cy="438" r="22" fill="#92400E" opacity=".76"/>
  <circle cx="386" cy="336" r="12" fill="#FDE68A" opacity=".95"/>
  <rect x="586" y="260" width="228" height="78" rx="24" fill="#F8FAFC" stroke="#E2E8F0"/>
  <rect x="610" y="286" width="122" height="12" rx="6" fill="#64748B" opacity=".5"/>
  <rect x="610" y="310" width="82" height="10" rx="5" fill="#16A34A"/>
  <rect x="586" y="362" width="228" height="78" rx="24" fill="#F0F9FF" stroke="#BAE6FD"/>
  <rect x="610" y="388" width="128" height="12" rx="6" fill="#0369A1" opacity=".5"/>
  <rect x="610" y="412" width="154" height="10" rx="5" fill="#0284C7"/>
  <rect x="586" y="464" width="228" height="84" rx="24" fill="#FFFBEB" stroke="#FDE68A"/>
  <rect x="610" y="490" width="142" height="12" rx="6" fill="#92400E" opacity=".45"/>
  <rect x="610" y="516" width="74" height="10" rx="5" fill="#D97706"/>
  <path d="M146 584h668" stroke="#E2E8F0" stroke-width="2"/>
  <rect x="166" y="592" width="164" height="16" rx="8" fill="#DCFCE7"/>
  <rect x="350" y="592" width="110" height="16" rx="8" fill="#E0F2FE"/>
  <rect x="480" y="592" width="142" height="16" rx="8" fill="#FEF3C7"/>
  <defs><linearGradient id="leafBg" x1="166" x2="556" y1="260" y2="548" gradientUnits="userSpaceOnUse"><stop stop-color="#DCFCE7"/><stop offset="1" stop-color="#F7FEE7"/></linearGradient></defs>
</svg>
